<?xml version="1.0" encoding="UTF-8" standalone="no"?>
<!-- Generator: Adobe Illustrator 21.0.0, SVG Export Plug-In . SVG Version: 6.00 Build 0)  -->

<svg
   version="1.1"
   id="Layer_1"
   x="0px"
   y="0px"
   viewBox="0 0 52.2 44.3"
   style="enable-background:new 0 0 52.2 44.3;"
   xml:space="preserve"
   sodipodi:docname="favicon.svg"
   inkscape:version="1.2.1 (9c6d41e410, 2022-07-14)"
   xmlns:inkscape="http://www.inkscape.org/namespaces/inkscape"
   xmlns:sodipodi="http://sodipodi.sourceforge.net/DTD/sodipodi-0.dtd"
   xmlns:xlink="http://www.w3.org/1999/xlink"
   xmlns="http://www.w3.org/2000/svg"
   xmlns:svg="http://www.w3.org/2000/svg"><defs
   id="defs9"><linearGradient
     id="linearGradient6596"
     inkscape:swatch="solid"><stop
       style="stop-color:#3efff8;stop-opacity:1;"
       offset="0"
       id="stop6594" /></linearGradient><linearGradient
     id="linearGradient887"><stop
       style="stop-color:#df376d;stop-opacity:1;"
       offset="0"
       id="stop4584" /><stop
       style="stop-color:#c8297b;stop-opacity:1;"
       offset="0.47434157"
       id="stop4586" /><stop
       style="stop-color:#fbaa41;stop-opacity:0.82999998;"
       offset="1"
       id="stop4588" /></linearGradient><linearGradient
     id="linearGradient887-1"><stop
       style="stop-color:#df376d;stop-opacity:1;"
       offset="0"
       id="stop883" /><stop
       style="stop-color:#c8297b;stop-opacity:0.91000003;"
       offset="0.5"
       id="stop3800" /><stop
       style="stop-color:#fbaa41;stop-opacity:0.82999998;"
       offset="1"
       id="stop885" /></linearGradient><linearGradient
     inkscape:collect="always"
     xlink:href="#linearGradient887"
     id="linearGradient6610"
     x1="18.947908"
     y1="6.7746716"
     x2="8.4154119"
     y2="19.741816"
     gradientUnits="userSpaceOnUse" /></defs><sodipodi:namedview
   id="namedview7"
   pagecolor="#ffffff"
   bordercolor="#000000"
   borderopacity="0.25"
   inkscape:showpageshadow="2"
   inkscape:pageopacity="0.0"
   inkscape:pagecheckerboard="0"
   inkscape:deskcolor="#d1d1d1"
   showgrid="false"
   inkscape:zoom="18.893906"
   inkscape:cx="12.279092"
   inkscape:cy="22.520489"
   inkscape:window-width="1920"
   inkscape:window-height="1018"
   inkscape:window-x="-8"
   inkscape:window-y="-8"
   inkscape:window-maximized="1"
   inkscape:current-layer="Layer_1" />
<style
   type="text/css"
   id="style2">
	.st0{fill:#3E54FF;}
</style>
<path
   class="st0"
   d="m 9.9,43.2 h 32.4 c 2.6,0 4.8,-2.1 4.8,-4.8 V 6 C 47.1,3.4 45,1.2 42.3,1.2 H 9.9 C 7.3,1.2 5.1,3.3 5.1,6 v 32.4 c 0,2.7 2.2,4.8 4.8,4.8 z m 8.9,-30.2 1.5,13.8 4.8,-13 h 2 l 4.8,13 1.5,-13.8 h 3.1 l -2.1,19.3 h -3.3 l -5,-13.2 -5,13.2 H 17.8 L 15.7,13 Z"
   id="path4"
   style="mix-blend-mode:darken;fill:url(#linearGradient6610);fill-opacity:1;fill-rule:evenodd" />
<g
   inkscape:groupmode="layer"
   id="layer1"
   inkscape:label="Layer 1" /><path
   style="fill:#001110;fill-opacity:1;fill-rule:evenodd;stroke-width:0.0529271"
   d="m 17.812895,32.139993 c -0.01406,-0.0655 -0.479134,-4.322822 -1.033501,-9.460722 -0.554368,-5.1379 -1.019068,-9.407134 -1.032667,-9.487186 l -0.02473,-0.14555 h 1.533563 c 0.942492,0 1.533564,0.01955 1.533564,0.05072 0,0.164851 1.487141,13.680234 1.507523,13.700616 0.01368,0.01368 0.03725,-0.0083 0.05239,-0.04886 0.07722,-0.206933 3.410828,-9.235316 4.038104,-10.936379 l 0.726775,-1.970889 0.987206,-6.46e-4 0.987206,-6.47e-4 0.05131,0.145549 c 0.20228,0.573834 4.689764,12.704683 4.720993,12.762085 0.02886,0.05305 0.04746,0.03868 0.06854,-0.05293 0.01591,-0.06915 0.358046,-3.168383 0.760296,-6.887174 l 0.731364,-6.76144 h 1.522977 c 0.837637,0 1.522933,0.006 1.52288,0.01323 -5.3e-5,0.0073 -0.355441,3.276189 -0.789753,7.264247 -0.434311,3.988058 -0.903959,8.305259 -1.04366,9.593778 l -0.254004,2.342763 -1.637086,-0.01397 -1.637087,-0.01397 -1.252941,-3.307945 c -0.689118,-1.81937 -1.809738,-4.778599 -2.490267,-6.576064 -0.680529,-1.797466 -1.255055,-3.250316 -1.276726,-3.228555 -0.0322,0.03233 -4.374356,11.445091 -4.85295,12.755306 l -0.140165,0.383721 h -1.626797 -1.626797 z"
   id="path7565" /><path
   style="fill:#001110;fill-opacity:1;fill-rule:evenodd;stroke-width:0.0529271"
   d="m 17.836439,32.206014 c 0,-0.02919 -0.464435,-4.323564 -1.032078,-9.543064 -0.567644,-5.219499 -1.032079,-9.518443 -1.032079,-9.553207 0,-0.07332 0.672348,-0.08255 2.091303,-0.02873 l 0.900443,0.03416 0.17686,1.672579 c 0.419386,3.966153 1.320153,11.974501 1.350261,12.004609 0.01808,0.01807 0.04353,0.0222 0.05656,0.0092 0.01303,-0.01303 1.073462,-2.869114 2.356506,-6.346844 1.283043,-3.47773 2.359169,-6.389168 2.391389,-6.469862 l 0.05858,-0.146717 0.954337,0.0144 0.954336,0.0144 0.946613,2.566966 c 2.426426,6.579833 3.81255,10.298431 3.85535,10.34287 0.02802,0.0291 0.05764,0.01849 0.07393,-0.02646 0.02708,-0.07475 0.534324,-4.659075 1.13856,-10.289944 0.174929,-1.630155 0.332357,-3.068924 0.349841,-3.197263 l 0.03179,-0.233345 1.459497,0.03455 c 0.802723,0.019 1.471012,0.04607 1.485087,0.06014 0.02159,0.02159 -1.94842,18.380118 -2.030573,18.922953 l -0.02804,0.185245 -1.598656,-0.01792 c -0.879261,-0.0099 -1.606574,-0.02571 -1.616252,-0.03524 -0.0097,-0.0095 -0.941511,-2.45463 -2.070741,-5.43357 -2.674318,-7.054929 -2.933354,-7.719222 -2.98718,-7.660562 -0.0356,0.0388 -3.10655,8.090012 -4.399005,11.533017 -0.300505,0.800522 -0.562808,1.497176 -0.582896,1.548118 -0.03367,0.08538 -0.162323,0.09262 -1.645138,0.09262 -1.039916,0 -1.608615,-0.01876 -1.608615,-0.05306 z"
   id="path7774" /></svg>
