<svg xmlns="http://www.w3.org/2000/svg" viewBox="0 0 529.11 247.5">
  <defs>
    <style>
      .cls-1 {
        fill: #e41915;
        stroke: #e41915;
        stroke-miterlimit: 10;
      }

      .cls-2, .cls-3 {
        fill: #272727;
      }

      .cls-3 {
        fill-rule: evenodd;
      }
    </style>
  </defs>
  <title>Ресурс 3</title>
  <g id="Слой_2" data-name="Слой 2">
    <g>
      <g>
        <path class="cls-1" d="M2.29,68.31C-2.5,60.64,3.83,46.65,3.83,46.65,10.92,30.55,34.49-2,86.23.66c0,0,44.47,1.72,32.78,39.67C112.3,62.18,92.17,69.84,76.84,72.72c0,0,46,.19,37.76,39.48A46.47,46.47,0,0,1,107.51,130c26.64,8.62,67.46,17,95.05,1.15,0,0,1.35-.77,1.92-.58.38.19-.38,1.54-.57,1.92-4,7.67-18.21,27.6-55.77,23.38-19.55-2.3-35.84-8.82-49.83-15.33-13.61,12.07-31.81,15.9-43.89,14.95,0,0-11.5,0-16.86-7.67-2.69-3.64-3.07-8.62-2.88-11.5,2.11-23,23-22.61,23-22.61,8.24-.38,17.25,2.3,23.57,5.75a83.93,83.93,0,0,0,10.35,4.79,21.78,21.78,0,0,0,2.3-4.79c10.16-24.53-4-38.72-35.65-41.4C55.57,77.89,56.53,76,56.53,76l3.06-7.09s.58-1.91,3.46-2.3c7.09-1.15,27.78-6.13,37.37-25.3C111.92,17.9,95.24,9.66,77.61,9.86c-17.06.19-37.56,10.54-53.28,36,0,0-9,14.56-6.51,20.12a3.81,3.81,0,0,0,3.45,1.72,6.76,6.76,0,0,0,3.06-1.15s.38-.57,1,0c.77,1-.58,2.68-.58,2.68s-3.25,4.22-11.3,4.41C5,73.67,2.29,68.31,2.29,68.31ZM5.94,58A23.52,23.52,0,0,1,7.27,54.7c.39-1,.77-1.92,1.16-3.07,1-1.91,1.91-3.83,2.68-5.55,1.15-1.92,2.3-3.65,3.45-5.37a7.05,7.05,0,0,1,1.34-2.3c.19-.38.58-.77.77-1.15a5.07,5.07,0,0,1,.95-1.15c0-.19.2-.38.39-.57,0-.2.19-.39.38-.58a2.52,2.52,0,0,1,1-1.15,14.06,14.06,0,0,1,1.73-2.11c.38-.57,1-1.15,1.53-1.91l1.72-1.73a48.38,48.38,0,0,1,6.52-6.13A88,88,0,0,1,41,14.26c.19-.19.57-.38.76-.57a1,1,0,0,0,.77-.38c.57-.39,1.15-.58,1.34-.77a3.89,3.89,0,0,0,1-.58,45.25,45.25,0,0,0-9,3.84,62.5,62.5,0,0,0-8.62,5.94,39.47,39.47,0,0,0-7.48,7.47,57,57,0,0,0-6.13,8.24,42.81,42.81,0,0,0-3.83,7.86,61.93,61.93,0,0,0-2.5,6.52,32.56,32.56,0,0,1-.95,4.4,3.81,3.81,0,0,0-.19,1.35A.59.59,0,0,0,5.94,58Zm40.43,19c-23,41.78-17.63,54.62-15.52,57.5a.72.72,0,0,1-.19,1.15,10.15,10.15,0,0,1-8.24.95c-14-5.75-6.71-42.73,17.82-81.06C65,17,73.59,17.52,78.38,20.59c3.83,2.3,4.21,8.43,4,10.92a1.2,1.2,0,0,1-1.15,1C69.94,34.39,46.37,76.93,46.37,76.93Zm44.27,50.79c-3.64-1.54-7.47-3.07-10.92-4.41-3.64-1.53-6.9-2.68-10.35-3.83a36.59,36.59,0,0,0-5-1.34,39.93,39.93,0,0,0-4.8-.77H57.1a2.41,2.41,0,0,0-1.14.19H54.8a24.9,24.9,0,0,0-4,1A13.92,13.92,0,0,0,47,120.24a15.1,15.1,0,0,0-2.69,2.11,27.14,27.14,0,0,0-2.11,2.49,13.27,13.27,0,0,0-1.14,2.3,9.58,9.58,0,0,0-1,3.26,1.75,1.75,0,0,1-.19,1v.19a2.74,2.74,0,0,1,.38-1.15c-.19-.38,0-.77,0-1.15a18.9,18.9,0,0,0,1-2.11A19.83,19.83,0,0,1,42.54,125c.38-.57,1.15-1.14,1.53-1.72a12.49,12.49,0,0,1,3.84-2.68,15,15,0,0,1,4.4-1.54,29,29,0,0,1,4.22-.38,15.76,15.76,0,0,1,4.22.19,64.49,64.49,0,0,1,8,2.3c5,1.73,10,4,14.56,6.14,4.79,2.1,9.58,4.21,14.18,6.13s9.2,3.64,13.42,5.17c2.3.77,4.6,1.54,6.51,2.11a23.38,23.38,0,0,0,3.45,1,13.55,13.55,0,0,0,1.54.57c.57.2,1.15.2,1.72.39a131,131,0,0,0,24,4.21,113.08,113.08,0,0,0,20.12-.57,93.7,93.7,0,0,0,14.57-3.26c3.83-1.34,6.7-2.49,8.81-3.26,1-.38,1.73-.77,2.3-1,.38-.38.57-.38.57-.38a114.87,114.87,0,0,1-12.26,3.83A104.7,104.7,0,0,1,169,144.39c-.58,0-1.15.19-1.73.19a5.07,5.07,0,0,0-1.72.2h-3.45a41.83,41.83,0,0,1-6.9,0,83.77,83.77,0,0,1-13.8-1.35,150.5,150.5,0,0,1-26.64-6.51C106.36,134,98.5,130.78,90.64,127.72Zm-6.7,5.75c-12.27-6.13-21.85-10.73-28.94-8.82,0,0-8.63,1.73-8.44,10.35-.19,7.86,10.93,10.54,24,6.71A40,40,0,0,0,83.94,133.47Z"/>
        <path class="cls-2" d="M127.24,119.67c-4.41-7.47-4-18.78-1.34-27.79,4.6-15.33,18.39-32.2,37.56-33.35,0,0,20.51-3.45,16.29,16.48,0,0-2.88,12.46-12.46,19-10,6.71-22,8.43-27.21,8.62-1.34,6.9-.77,12.08,1,15.53,0,0,2.87,7.09,14.37,5,0,0,10.92-2.68,20.12-14.18,8.24-10,18-26.64,22.43-34.5a3.52,3.52,0,0,1,3.45-1.53s1.91.57.57,2.87c-9.77,18.4-17.25,29.9-23.19,37,0,0-12.07,16.1-31.24,16.48C132,129.06,127.24,119.67,127.24,119.67Zm7.47-37.18c1-1.15,1.92-2.3,2.88-3.26a17.41,17.41,0,0,1,2.68-2.68,31.94,31.94,0,0,1,2.88-2.49l.57-.58c.19-.19.38-.19.38-.38.19,0,.19-.19.39-.19a2.63,2.63,0,0,1,.76-.58l.58-.57c1.92-1.34,3.64-2.69,5.17-3.64a46.7,46.7,0,0,1,4.79-2.88,52.11,52.11,0,0,1,7.1-3.26c1-.38,1.53-.57,2.1-.76a2.48,2.48,0,0,0,.58-.39,23.21,23.21,0,0,0-6.14.77,27.14,27.14,0,0,0-6.32,2.11,44.86,44.86,0,0,0-5.75,3.45c-1.72,1.34-3.26,2.68-4.79,4A56.25,56.25,0,0,0,136.44,79c-.58,1-1,1.92-1.34,2.49-.2.19-.2.58-.39.58Zm28.75-16.87c-7.47,4.22-15.71,15.14-20.31,26.84a43.62,43.62,0,0,0-1.92,6.13c25.87-7.28,29.32-24.34,29.7-27.41a.68.68,0,0,1,.2-.57,13.8,13.8,0,0,0-.2-4.22c-.19-.77-.19-1.34-.57-1.73v-.19a1.92,1.92,0,0,0-1-.76h-1C166.33,63.71,164.23,65.24,163.46,65.62Z"/>
        <path class="cls-2" d="M277.1,75.59c-20.51,52.13-39.86,53.28-46.38,52.89-21.85-1.34-6.9-28.74,3.83-50,8.25-13.61,3.26-14.57,3.26-14.57-4.6-2.11-28.74,31.43-40.82,53.66a14.88,14.88,0,0,0-2.11,7.86c.39,2.68-1.53,3.06-2.3,3.06h-1c-24.34-1.53-2.5-35.83,7.66-57.3A25.48,25.48,0,0,0,202,62.75c.39-1.53,1.54-5.17,5.56-3.26,9.58,4.79,7.67,15.33,3.07,26.07,9.2-13.61,20.89-26.64,30.47-26.64,0,0,14.38-.77,12.08,15.14-1.92,12.45-13.42,28.36-16.49,35.45-5.17,11.88-1.53,11.88-1.53,11.88,10.16,1.54,28.94-23.38,37.56-46.57a3.74,3.74,0,0,1,3.45-1.91S278.06,73.1,277.1,75.59Zm-70-10.73a.71.71,0,0,0-.19-.58v-.57a1.17,1.17,0,0,0-.19-.77v-.19c0-.19,0-.19-.2-.19v.38c0,.39-.19.58-.19.77a.7.7,0,0,1-.19.57v.58a.7.7,0,0,0-.19.57.72.72,0,0,0-.19.58.7.7,0,0,0-.19.57.72.72,0,0,0-.19.58c-.58,1.53-1.16,2.87-1.73,4-.19.39-.19.77-.38,1-.19.38-.39.58-.39,1a1.43,1.43,0,0,0-.38.77c-.19.38-.38.57-.38.95-.2.19-.2.58-.39.77s-.19.57-.38.77c-.19.57-.38,1-.57,1.53-.2.19-.2.38-.39.58,0,.38-.19.57-.19.76l-.57,1.15c-.2.77-.39,1.34-.58,1.92L198.53,84c.38-.38.95-.76,1.34-1.15.38-.57,1-1,1.34-1.53a11.48,11.48,0,0,0,1.15-1.53c.19-.2.38-.58.57-.77.2-.38.39-.57.58-1a26.68,26.68,0,0,0,3.06-7.28A23.48,23.48,0,0,0,207.15,64.86Z"/>
        <path class="cls-2" d="M264.25,119.67c-4.4-7.47-4-18.78-1.34-27.79,4.6-15.33,18.4-32.2,37.57-33.35,0,0,20.5-3.45,16.28,16.48,0,0-2.87,12.46-12.45,19-10,6.71-22,8.43-27.22,8.62-1.34,6.9-.76,12.08,1,15.53,0,0,2.88,7.09,14.38,5,0,0,10.92-2.68,20.12-14.18,8.24-10,18-26.64,22.42-34.5a3.54,3.54,0,0,1,3.45-1.53s1.92.57.58,2.87c-9.78,18.4-17.25,29.9-23.19,37,0,0-12.08,16.1-31.24,16.48C269.05,129.06,264.25,119.67,264.25,119.67Zm7.48-37.18c1-1.15,1.92-2.3,2.87-3.26a17.94,17.94,0,0,1,2.69-2.68,31.86,31.86,0,0,1,2.87-2.49l.58-.58c.19-.19.38-.19.38-.38.19,0,.19-.19.38-.19a2.69,2.69,0,0,1,.77-.58l.57-.57c1.92-1.34,3.64-2.69,5.18-3.64a45.65,45.65,0,0,1,4.79-2.88A52.66,52.66,0,0,1,299.9,62c1-.38,1.53-.57,2.11-.76a2.54,2.54,0,0,0,.57-.39,23.19,23.19,0,0,0-6.13.77,26.84,26.84,0,0,0-6.32,2.11,44.18,44.18,0,0,0-5.75,3.45c-1.73,1.34-3.26,2.68-4.79,4A56.43,56.43,0,0,0,273.45,79c-.57,1-.95,1.92-1.34,2.49-.19.19-.19.58-.38.58Zm28.75-16.87c-7.48,4.22-15.72,15.14-20.32,26.84a43.52,43.52,0,0,0-1.91,6.13c25.87-7.28,29.32-24.34,29.7-27.41a.7.7,0,0,1,.19-.57,14.18,14.18,0,0,0-.19-4.22c-.19-.77-.19-1.34-.57-1.73v-.19a2,2,0,0,0-1-.76h-1C303.35,63.71,301.24,65.24,300.48,65.62Z"/>
        <path class="cls-2" d="M307.94,146.88C310.63,117.94,336.12,70,336.12,70s24.53-55,47.72-51.74c0,0,8.24,1,9,10.73,0,.19,0,.77-.38,1-.19,0-.38-.19-.58-.19-3.44-2.11-15.33-4.22-39.86,45.42a16.48,16.48,0,0,0-1.34,2.3.19.19,0,0,1,.19.19,71.65,71.65,0,0,0,33-4.6,3.68,3.68,0,0,1,3.83,1.15s1.15,1.53-1.34,2.49C375.79,81,363.9,83.45,352.4,82.68c4.8,16.86,7.29,47.72-2.29,68.42C337.07,179.08,305.07,175.82,307.94,146.88Zm17.64,16.29C338.8,171.6,352,110.66,347,85,336.5,106.45,314.08,155.7,325.58,163.17ZM345.12,61.79c2.69-3.83,5.18-7.67,7.67-11.11,2.68-3.45,5-6.71,7.28-9.78,2.49-2.87,4.79-5.75,6.9-8a65.22,65.22,0,0,1,6.52-6.32,18.87,18.87,0,0,1,6.13-3.64,15.48,15.48,0,0,1,2.87-.77h1.15c.39.19.77.19,1.15.38a5.94,5.94,0,0,1,1.92.77c.38.38.77.58,1.15,1,0,.19.19.19.38.38a.19.19,0,0,0,.2.19.71.71,0,0,0,.19.39A6.75,6.75,0,0,0,385,21.55c-.2-.2-.39-.2-.58-.39h-.57l-.2-.19h-.57c-.38,0-.58,0-.77-.19a14.87,14.87,0,0,0-2.87.38,19.12,19.12,0,0,0-5.18,1.92c-.76.57-1.53,1-2.3,1.53a21.73,21.73,0,0,0-2.11,1.73,38.43,38.43,0,0,0-4,3.64c-1.34,1.34-2.49,2.68-3.64,4-2.3,2.88-4.22,5.56-6.13,8.24C352.6,47.61,349.91,52.4,348,56a41.61,41.61,0,0,0-2.11,4.22A8.62,8.62,0,0,0,345.12,61.79Z"/>
        <path class="cls-2" d="M382.3,71.18a27.12,27.12,0,0,0,2.87-8.43c.19-1.53,1.53-5.17,5.37-3.26,18.4,9-5,39.29-9.78,50.21-5,11.69-1.53,11.69-1.53,11.69C389.58,123.12,408.17,98,417,74.82a3.42,3.42,0,0,1,3.26-1.91s1.92.19,1,2.68c-20.31,52.13-39.67,53.28-46.38,52.89C350.48,127,372.14,92.65,382.3,71.18ZM380.76,84a7.54,7.54,0,0,0,1.34-1.15,9.32,9.32,0,0,0,1.35-1.53,11.48,11.48,0,0,0,1.15-1.53c.38-.2.38-.58.57-.77.19-.38.38-.57.58-1a26.68,26.68,0,0,0,3.06-7.28,17.11,17.11,0,0,0,.58-5.94V63.71a1.17,1.17,0,0,1-.19-.77l-.2-.19v-.38c0,.19-.19.38-.19.57v.77a.7.7,0,0,0-.19.57c0,.19-.19.38-.19.58s-.19.38-.19.57-.2.39-.2.58a.7.7,0,0,1-.19.57c0,.19-.19.39-.19.58a42.51,42.51,0,0,1-1.72,4,1.41,1.41,0,0,1-.39,1c0,.38-.19.58-.38,1a1.5,1.5,0,0,1-.38.77c0,.38-.19.57-.39.95a1.47,1.47,0,0,1-.38.77c0,.19-.19.57-.19.77a5.79,5.79,0,0,0-.77,1.53c0,.19-.19.38-.19.58-.19.38-.19.57-.38.76-.19.38-.19.77-.39,1.15a13.23,13.23,0,0,0-.76,1.92Zm14.57-30.66s-3.64-13.22,2.87-16.29c6.71-3.07,20.32-1,17.44,5.94s-12.07,13.22-14.95,13.42C397.82,56.81,395.9,55.66,395.33,53.36Zm2.11-4.6c.19.38.19.77.38,1,0,.19,0,.19.19.38a5.61,5.61,0,0,1,.38-1.72c.2-.39.2-1,.39-1.35.19-1,.57-1.91.76-2.68a15.37,15.37,0,0,1,1-1.72,8.94,8.94,0,0,1,1-1.35,14.78,14.78,0,0,1,2.3-1.72c.19,0,.38-.19.58-.19l.19-.19a.59.59,0,0,1,.38-.19,10.87,10.87,0,0,0-2.68-.39,5.15,5.15,0,0,0-2.69,1,5.87,5.87,0,0,0-1.91,2.49,13.61,13.61,0,0,0-.77,2.69A11.75,11.75,0,0,0,397.44,48.76Z"/>
        <path class="cls-2" d="M461.63,75.4c-18.59,47.53-36.22,52.7-44.27,52.89-12.84.39-11.88-11.69-11.88-11.69.77-25.1,24.34-69,24.34-69-7.28.57-9.77,1.92-12.65,4.41-.77.76-1.34.38-1.34.38-.38-.19,0-1.34,0-1.34,1.72-6.32,4.41-13.61,21.85-14.76,8.24-10.73,18.2-19.55,28-18.2,0,0,8.24.95,9,10.73,0,.19,0,.77-.39,1-.19,0-.38-.19-.57-.19-2.11-1.35-7.09-2.5-16.1,7.09,25.87,1.72,62.48,5.36,69.76-6.9,0,0,.57-1,1.15-.77.76.19.57,1.53.57,1.53-.19,5.56-3.06,14.19-18.4,16.68-16.09,2.68-40.82.76-61.32.19,0,0-8.24,12.84-15.53,27.59,0,0-10.92,20.9-14.94,41.4,0,0-1.54,5.37,1.72,4.79,10.54.19,28.36-24.14,36.8-46.57a3.38,3.38,0,0,1,3.25-1.91S462.59,72.91,461.63,75.4ZM429.82,40.9a2.45,2.45,0,0,0,1.15-.19h1.15c.77,0,1.34-.19,2.11-.19h6.32c5.56.38,10.93,1,15.91,1.53,10,1,19,1.34,26.26,1.34a79.22,79.22,0,0,0,10-.38,58.87,58.87,0,0,0,7.28-.77c1.92-.38,3.45-1,4.41-1.15.38-.19.58-.19.77-.38.19,0,.19,0,.38-.19h.38a57.36,57.36,0,0,1-6.32.76c-2.11,0-4.41.2-6.52,0-4.6,0-9.2-.19-13.8-.38-9.39-.57-18.59-1.15-27-1.72a16.61,16.61,0,0,0-3.07-.19h-1.53c-.19-.2-.38-.2-.76-.2h-6.33c-3.45.2-6.71.58-9.2,1a20.8,20.8,0,0,0-5.94,2.11c-.77.38-1.15.77-1.53,1a.19.19,0,0,1-.19.19v.19c-.19,0-.19,0-.19.19V43.2h.19V43l.38-.19.38-.39a2.7,2.7,0,0,0,1.15-.38.62.62,0,0,1,.39-.19l.57-.19c.19,0,.38-.19.58-.19l.57-.2h.58a.7.7,0,0,1,.57-.19A8.48,8.48,0,0,0,429.82,40.9Z"/>
        <path class="cls-2" d="M477.92,84.4c4-4.79,13-17.05,8.05-19.93-6.33-3.45-18.4,12.65-18.21,19.74,0,6.33,5.94,8.05,10.92,9.78,9.78,3.45,15.34,7.86,15.14,13.8-.19,6.7-8.05,21.08-32.38,24.72-19.93,1.72-22.43-6.33-22.62-9.58a2.34,2.34,0,0,1,1.34-2.3,4.76,4.76,0,0,1,3.07.38c3.26,1.73,28-1.92,34.88-17.63,0,0,1.34-2.68-1.92-3.45-4.6-1-14-6.13-14-6.13-13.6-7.09-3.64-23.38-3.64-23.38,1.92-3.26,7.67-11.31,20.32-12.08,19.93-1,21.65,10,20.12,15.72,0,0-3.64,15-19.55,13C476.38,86.71,477.92,84.4,477.92,84.4Zm1.34-23.18a21.2,21.2,0,0,0-4.79.38,24.58,24.58,0,0,0-4.79,1.92,16.39,16.39,0,0,0-4,3.25,17,17,0,0,0-3.06,3.65,21.11,21.11,0,0,0-3.07,7.09,11.76,11.76,0,0,0-.57,2.1v.58l-.2.19c4.41-7.86,9.2-12.65,13.23-15.33a54.94,54.94,0,0,1,5.17-2.87l1.53-.77A.84.84,0,0,0,479.26,61.22Z"/>
      </g>
      <path class="cls-3" d="M262.74,247.5C219,246.4,178.1,234.14,141,209.34c-4.78-3.2-8.24-7-4.74-12.51,3.72-5.89,8.51-3.32,13.2-.38,76.87,48.12,153.74,47.36,230.51-.22,4.64-2.88,9.4-5.69,13.29.1,4.28,6.38-.75,9.77-5.48,12.9C350.11,234.15,308.59,246.68,262.74,247.5Z"/>
    </g>
  </g>
</svg>
