<svg width="70" height="21" viewBox="0 0 70 21" fill="none" xmlns="http://www.w3.org/2000/svg">
<path d="M11.7601 20.509V13.2369L18.589 0H13.344L9.49629 8.36261C9.47347 8.41222 9.42386 8.444 9.36926 8.444C9.31459 8.444 9.26493 8.41213 9.24215 8.36243L5.40933 0H0L6.8289 13.3722V20.509H11.7601Z" fill="#5C6989"/>
<path d="M25.7666 20.6933C24.1511 20.6933 22.6992 20.3345 21.4109 19.6168C20.1226 18.899 19.1001 17.9147 18.3435 16.6639C17.6073 15.413 17.2393 14.0083 17.2393 12.4498C17.2393 10.8709 17.6073 9.46621 18.3435 8.23584C19.1001 6.98496 20.1226 6.00066 21.4109 5.28295C22.6992 4.54472 24.1511 4.17561 25.7666 4.17561C27.3821 4.17561 28.8238 4.54472 30.0916 5.28295C31.3799 6.00066 32.3922 6.98496 33.1284 8.23584C33.885 9.46621 34.2633 10.8709 34.2633 12.4498C34.2633 14.0083 33.885 15.413 33.1284 16.6639C32.3922 17.9147 31.3799 18.899 30.0916 19.6168C28.8033 20.3345 27.3617 20.6933 25.7666 20.6933ZM25.7666 16.5408C26.5232 16.5408 27.1776 16.3563 27.7297 15.9872C28.2819 15.6181 28.7113 15.1259 29.018 14.5107C29.3248 13.8955 29.4782 13.1983 29.4782 12.4191C29.4782 11.6604 29.3248 10.9734 29.018 10.3582C28.7113 9.74304 28.2819 9.25089 27.7297 8.88178C27.1776 8.51267 26.5232 8.32811 25.7666 8.32811C25.01 8.32811 24.3454 8.51267 23.7728 8.88178C23.2207 9.25089 22.7912 9.74304 22.4845 10.3582C22.1778 10.9734 22.0244 11.6604 22.0244 12.4191C22.0244 13.1983 22.1778 13.8955 22.4845 14.5107C22.7912 15.1259 23.2207 15.6181 23.7728 15.9872C24.3454 16.3563 25.01 16.5408 25.7666 16.5408Z" fill="#5C6989"/>
<path d="M44.6325 20.6933C43.017 20.6933 41.6162 20.3857 40.4302 19.7706C39.2646 19.1349 38.3648 18.2839 37.7309 17.2175C37.0969 16.1307 36.78 14.9311 36.78 13.6187V4.17561H41.5344V13.4957C41.5344 14.0493 41.6674 14.562 41.9332 15.0336C42.199 15.4848 42.5569 15.8539 43.0068 16.141C43.4771 16.4075 44.0088 16.5408 44.6018 16.5408C45.1744 16.5408 45.6856 16.4075 46.1355 16.141C46.6059 15.8539 46.9739 15.4848 47.2398 15.0336C47.5056 14.562 47.6385 14.0493 47.6385 13.4957V4.17561H52.393V13.6187C52.393 14.9311 52.0863 16.1307 51.4728 17.2175C50.8593 18.2839 49.9698 19.1349 48.8041 19.7706C47.659 20.3857 46.2684 20.6933 44.6325 20.6933Z" fill="#5C6989"/>
<path d="M55.5215 20.1407L55.5217 8.78943C55.5217 7.35399 55.9307 6.22615 56.7487 5.40591C57.5667 4.58566 58.7016 4.17554 60.1535 4.17554H64.7239V8.0512H61.3191C61.0328 8.0512 60.7874 8.15373 60.5829 8.3588C60.3784 8.54335 60.2762 8.78943 60.2762 9.09702L60.2759 20.1407H55.5215Z" fill="#5C6989"/>
<ellipse cx="67.3622" cy="18.053" rx="2.63804" ry="2.64038" fill="#C4C4C4"/>
<ellipse cx="67.3622" cy="18.053" rx="2.63804" ry="2.64038" fill="url(#paint0_linear)"/>
<defs>
<linearGradient id="paint0_linear" x1="64.7241" y1="18.053" x2="70.0002" y2="18.053" gradientUnits="userSpaceOnUse">
<stop stop-color="#D70652"/>
<stop offset="1" stop-color="#FF025E"/>
</linearGradient>
</defs>
</svg>
