<svg width="192" height="27" viewBox="0 0 192 27" fill="none" xmlns="http://www.w3.org/2000/svg">
<g clip-path="url(#clip0)">
<path d="M9.53496 17.8243L18.8934 8.9631L9.35822 -0.0651243L-0.000259145 8.79603L9.53496 17.8243Z" fill="#FFCCDB"/>
<path d="M19.0934 26.8747L28.4519 18.0135L18.9167 8.98531L9.55821 17.8465L19.0934 26.8747Z" fill="#FF9AB7"/>
<path d="M37.1905 9.75441C36.1689 8.86184 34.7919 8.30577 33.2641 8.27994C30.0476 8.22556 27.5204 10.6184 27.5778 13.6639L27.5865 14.1207C27.6109 15.415 28.1163 16.6414 28.9376 17.5686L28.4243 18.0547L18.8892 9.02637L28.2477 0.165285L37.7829 9.19358L37.1905 9.75441Z" fill="#FF3670"/>
</g>
<path d="M56.9691 5.89174H59.89L52.7473 22.3617H51.8637L44.7209 5.89174H47.6419L52.3055 17.1581L56.9691 5.89174Z" fill="#202020"/>
<path d="M63.2064 22.0917V5.89174H65.8082V22.0917H63.2064Z" fill="#202020"/>
<path d="M70.6304 22.0917V5.89174H75.7113C78.3459 5.89174 80.4731 6.63629 82.0931 8.12538C83.7131 9.61447 84.5231 11.5617 84.5231 13.9672C84.5231 16.3399 83.7049 18.2872 82.0686 19.809C80.4486 21.3308 78.3295 22.0917 75.7113 22.0917H70.6304ZM73.2322 19.7599H75.6868C77.5522 19.7599 79.0413 19.2281 80.154 18.1645C81.2831 17.0845 81.8477 15.6854 81.8477 13.9672C81.8477 12.2326 81.2913 10.8499 80.1786 9.81901C79.0659 8.77174 77.5686 8.2481 75.6868 8.2481H73.2322V19.7599Z" fill="#202020"/>
<path d="M87.3798 13.9917C87.3307 11.6845 88.1571 9.70447 89.8589 8.05174C91.5607 6.39901 93.5734 5.58901 95.8971 5.62174C97.3698 5.62174 98.7198 5.9572 99.9471 6.6281C101.174 7.29901 102.14 8.2072 102.843 9.35265L100.88 10.8008C99.6853 8.93538 98.0325 8.00265 95.9216 8.00265C94.2525 8.00265 92.8616 8.57538 91.7489 9.72083C90.6362 10.8499 90.0798 12.2736 90.0798 13.9917C90.0798 15.7099 90.6362 17.1417 91.7489 18.2872C92.8616 19.4163 94.2525 19.9808 95.9216 19.9808C98.0325 19.9808 99.6853 19.0481 100.88 17.1826L102.843 18.6308C102.14 19.7927 101.174 20.709 99.9471 21.3799C98.7362 22.0345 97.3862 22.3617 95.8971 22.3617C93.5734 22.3945 91.5607 21.5845 89.8589 19.9317C88.1571 18.279 87.3307 16.299 87.3798 13.9917Z" fill="#202020"/>
<path d="M119.848 22.0917H116.878L112.264 15.8326H109.294V22.0917H106.692V5.89174H112.608C114.244 5.89174 115.569 6.3581 116.584 7.29083C117.598 8.2072 118.106 9.39356 118.106 10.8499C118.106 11.9136 117.828 12.8463 117.271 13.6481C116.731 14.4499 115.97 15.039 114.988 15.4154L119.848 22.0917ZM109.294 8.19901V13.5254H112.558C113.442 13.5254 114.138 13.2881 114.645 12.8136C115.168 12.3226 115.43 11.6763 115.43 10.8745C115.43 10.0726 115.168 9.42629 114.645 8.93538C114.138 8.44447 113.442 8.19901 112.558 8.19901H109.294Z" fill="#202020"/>
<path d="M122.262 15.5381V5.89174H124.864V15.7099C124.864 17.0517 125.232 18.099 125.968 18.8517C126.721 19.6045 127.711 19.9808 128.938 19.9808C130.149 19.9808 131.123 19.6045 131.859 18.8517C132.596 18.099 132.964 17.0517 132.964 15.7099V5.89174H135.566V15.5381C135.566 17.6326 134.944 19.2936 133.7 20.5208C132.473 21.7481 130.886 22.3617 128.938 22.3617C126.958 22.3617 125.346 21.7481 124.103 20.5208C122.876 19.2936 122.262 17.6326 122.262 15.5381Z" fill="#202020"/>
<path d="M150.964 5.89174H153.566V22.3617H152.682L142.815 11.1199V22.0917H140.213V5.62174H141.121L150.964 16.8145V5.89174Z" fill="#202020"/>
<path d="M157.418 13.9917C157.369 11.6845 158.195 9.70447 159.897 8.05174C161.599 6.39901 163.611 5.58901 165.935 5.62174C167.408 5.62174 168.758 5.9572 169.985 6.6281C171.212 7.29901 172.178 8.2072 172.881 9.35265L170.918 10.8008C169.723 8.93538 168.07 8.00265 165.96 8.00265C164.29 8.00265 162.9 8.57538 161.787 9.72083C160.674 10.8499 160.118 12.2736 160.118 13.9917C160.118 15.7099 160.674 17.1417 161.787 18.2872C162.9 19.4163 164.29 19.9808 165.96 19.9808C168.07 19.9808 169.723 19.0481 170.918 17.1826L172.881 18.6308C172.178 19.7927 171.212 20.709 169.985 21.3799C168.774 22.0345 167.424 22.3617 165.935 22.3617C163.611 22.3945 161.599 21.5845 159.897 19.9317C158.195 18.279 157.369 16.299 157.418 13.9917Z" fill="#202020"/>
<path d="M176.73 22.0917V5.89174H179.332V12.3472H187.481V5.89174H190.083V22.0917H187.481V14.679H179.332V22.0917H176.73Z" fill="#202020"/>
<defs>
<clipPath id="clip0">
<rect width="191.455" height="27" fill="white"/>
</clipPath>
</defs>
</svg>
